<svg xmlns="http://www.w3.org/2000/svg" viewBox="0 0 32 32" width="24" height="24" style="border-color: rgba(187,187,187,1);border-width: 0px;border-style: solid" filter="none">
    
    <g>
    <path d="M16 1.984c-7.744 0-13.984 6.272-13.984 14.016s6.24 14.016 13.984 14.016 14.016-6.272 14.016-14.016-6.272-14.016-14.016-14.016zM25.664 16.928c-0.032 0.288-0.064 0.608-0.16 0.96h-19.008c-0.064-0.352-0.128-0.672-0.16-0.992s-0.032-0.64-0.032-0.96c0-0.288 0-0.576 0.032-0.864s0.096-0.608 0.16-0.96h19.008c0.096 0.352 0.128 0.672 0.16 0.992s0.032 0.64 0.032 0.96c0 0.288 0 0.576-0.032 0.864z" fill="rgba(232.05,32.895,15.045,1)"></path>
    </g>
  </svg>