<svg xmlns="http://www.w3.org/2000/svg" viewBox="0 0 32 32" width="26" height="26" style="" filter="none">
    
    <g>
    <path d="M5.111 7.111h21.778c0.859 0 1.556 0.696 1.556 1.556s-0.696 1.556-1.556 1.556h-21.778c-0.859 0-1.556-0.696-1.556-1.556s0.696-1.556 1.556-1.556zM5.111 14.889h21.778c0.859 0 1.556 0.696 1.556 1.556s-0.696 1.556-1.556 1.556h-21.778c-0.859 0-1.556-0.696-1.556-1.556s0.696-1.556 1.556-1.556zM5.111 22.667h21.778c0.859 0 1.556 0.696 1.556 1.556s-0.696 1.556-1.556 1.556h-21.778c-0.859 0-1.556-0.696-1.556-1.556s0.696-1.556 1.556-1.556z" fill="rgba(154.01999999999998,154.01999999999998,154.01999999999998,1)"></path>
    </g>
  </svg>