<?xml version="1.0" standalone="no"?><!DOCTYPE svg PUBLIC "-//W3C//DTD SVG 1.1//EN" "http://www.w3.org/Graphics/SVG/1.1/DTD/svg11.dtd"><svg t="1681391211870" class="icon" viewBox="0 0 1024 1024" version="1.1" xmlns="http://www.w3.org/2000/svg" p-id="3479" xmlns:xlink="http://www.w3.org/1999/xlink" width="200" height="200"><path d="M426.666667 426.666667H384V298.666667h298.666667v128h-256z m0-42.666667h213.333333V341.333333h-213.333333v42.666667zM256 170.666667h554.666667v682.666666H256V170.666667z m42.666667 42.666666v597.333334h469.333333V213.333333H298.666667z m85.333333 298.666667h42.666667v42.666667H384v-42.666667z m128 0h42.666667v42.666667h-42.666667v-42.666667z m128 0h42.666667v42.666667h-42.666667v-42.666667z m-256 85.333333h42.666667v42.666667H384v-42.666667z m128 0h42.666667v42.666667h-42.666667v-42.666667z m-128 85.333334h42.666667v42.666666H384v-42.666666z m128 0h42.666667v42.666666h-42.666667v-42.666666z m128-85.333334h42.666667v128h-42.666667v-128zM256 170.666667h554.666667v42.666666H256V170.666667z" fill="#444444" p-id="3480"></path></svg>